<?xml version="1.0" encoding="UTF-8" standalone="no"?>
<svg
   version="1.1"
   width="505"
   height="556"
   viewBox="0 0 505 556"
   xml:space="preserve"
   id="svg9"
   sodipodi:docname="HCommit - Retângulo.svg"
   inkscape:version="1.3.2 (091e20e, 2023-11-25, custom)"
   xmlns:inkscape="http://www.inkscape.org/namespaces/inkscape"
   xmlns:sodipodi="http://sodipodi.sourceforge.net/DTD/sodipodi-0.dtd"
   xmlns="http://www.w3.org/2000/svg"
   xmlns:svg="http://www.w3.org/2000/svg"
   xmlns:rdf="http://www.w3.org/1999/02/22-rdf-syntax-ns#"
   xmlns:cc="http://creativecommons.org/ns#"
   xmlns:dc="http://purl.org/dc/elements/1.1/"><metadata
   id="metadata13"><rdf:RDF><cc:Work
       rdf:about=""><dc:format>image/svg+xml</dc:format><dc:type
         rdf:resource="http://purl.org/dc/dcmitype/StillImage" /></cc:Work></rdf:RDF></metadata><sodipodi:namedview
   pagecolor="#ffffff"
   bordercolor="#000000"
   borderopacity="0.25"
   objecttolerance="10"
   gridtolerance="10"
   guidetolerance="10"
   inkscape:pageopacity="0"
   inkscape:pageshadow="2"
   inkscape:window-width="2560"
   inkscape:window-height="1369"
   id="namedview11"
   showgrid="false"
   inkscape:zoom="1.4517242"
   inkscape:cx="246.94773"
   inkscape:cy="264.85747"
   inkscape:window-x="1912"
   inkscape:window-y="-8"
   inkscape:window-maximized="1"
   inkscape:current-layer="g3"
   inkscape:document-rotation="0"
   inkscape:snap-bbox="true"
   inkscape:showpageshadow="2"
   inkscape:pagecheckerboard="true"
   inkscape:deskcolor="#d1d1d1" />
<desc
   id="desc2">Created with Fabric.js 3.6.6</desc>
<defs
   id="defs4">
<clipPath
   clipPathUnits="userSpaceOnUse"
   id="clipPath3"><rect
     style="fill:none;stroke-width:0.930186"
     id="rect4"
     width="274.13336"
     height="374.55844"
     x="144.21431"
     y="86.015076"
     rx="0"
     ry="0" /></clipPath></defs>

<g
   inkscape:groupmode="layer"
   id="g3"
   inkscape:label="Yello"
   style="display:inline;stroke-width:0.94269"
   transform="matrix(1.0631461,0,0,1.0584464,-17.043766,-20.197766)"><rect
     style="fill:#224165;fill-opacity:1;stroke-width:0.94417"
     id="rect1"
     width="402.43536"
     height="469.07047"
     x="79.741714"
     y="-488.08252"
     rx="188.95621"
     ry="46.422626"
     transform="rotate(90)" /><rect
     style="fill:#224165;fill-opacity:1;stroke-width:0.94417"
     id="rect2"
     width="400"
     height="471.43158"
     x="53.547314"
     y="45.243618"
     rx="188.12091"
     ry="46.628754" /><rect
     style="fill:#ffffff;stroke-width:0.94417"
     id="rect3"
     width="236.27077"
     height="362.32779"
     x="135.41193"
     y="99.795517"
     rx="141.09067"
     ry="23.619526" /><g
     transform="matrix(1.076742,0,0,1.076742,264.35154,270.60985)"
     id="HCommit"
     style="fill:#224165;fill-opacity:1;stroke-width:0.875502"
     inkscape:export-xdpi="96"
     inkscape:export-ydpi="96">

<path
   style="opacity:1;fill:#224165;fill-opacity:1;fill-rule:nonzero;stroke:none;stroke-width:0.875502;stroke-linecap:butt;stroke-linejoin:miter;stroke-miterlimit:4;stroke-dasharray:none;stroke-dashoffset:0"
   transform="translate(-284.75731,-265.91518)"
   d="m 497.02543,149.69492 c -14.5,-24.95 -192.37,-128.000005 -221.34,-128.000005 -28.97,0 -206.910007,102.790005 -221.320007,128.000005 -14.41,25.21 -14.49,230.8 0,256 14.49,25.2 192.380007,128 221.320007,128 28.94,0 206.84,-102.92 221.33,-128 14.49,-25.08 14.51,-231 0.01,-256 z m -161.37,286.22 c -4,0 -40.91,-35.77 -38,-38.69 0.87,-0.87 6.26,-1.48 17.55,-1.83 0,-26.23 0.59,-68.59 0.94,-86.32 0,-2 -0.44,-3.43 -0.44,-5.85 h -79.93 c 0,7.1 -0.46,36.2 1.37,72.88 0.23,4.54 -1.58,6 -5.74,5.94 -10.13,0 -20.27,-0.11 -30.41,-0.08 -4.1,0 -5.87,-1.53 -5.74,-6.11 0.92,-33.44 3,-84 -0.15,-212.67 v -3.17 c -9.67,-0.35 -16.38,-1 -17.26,-1.84 -2.92,-2.92 34.54,-38.69 38.49,-38.69 3.95,0 41.17,35.78 38.27,38.69 -0.87,0.87 -7.9,1.49 -16.77,1.84 v 3.16 c -2.42,25.75 -2,79.59 -2.63,105.39 h 80.26 c 0,-4.55 0.39,-34.74 -1.2,-83.64 -0.1,-3.39 0.95,-5.17 4.21,-5.2 11.07,-0.08 22.15,-0.13 33.23,-0.06 3.46,0 4.57,1.72 4.5,5.38 -3.68,191.29 -0.68,177.94 -0.68,210.34 8.87,0.35 16.82,1 17.69,1.84 2.88,2.91 -33.62,38.69 -37.58,38.69 z"
   stroke-linecap="round"
   id="H"
   clip-path="url(#clipPath3)" /></g></g></svg>
